<?xml version="1.0" encoding="utf-8"?>
<svg id="Groupe_1796" data-name="Groupe 1796" xmlns="http://www.w3.org/2000/svg" xmlns:xlink="http://www.w3.org/1999/xlink" width="1034.066" height="494.5" viewBox="0 0 1034.066 494.5">
  <defs>
    <clipPath id="clip-path">
      <rect id="Rectangle_256" data-name="Rectangle 256" width="1034.066" height="494.5" fill="#eb6408"/>
    </clipPath>
  </defs>
  <g id="Groupe_1795" data-name="Groupe 1795" clip-path="url(#clip-path)">
    <path id="Tracé_3658" data-name="Tracé 3658" d="M198.9,371.441l-.072.006c.237,4.928.206,9.886.767,14.776,1.135,9.889,2.677,19.73,3.884,29.61.707,5.792.694,11.694,1.712,17.421,1.6,9.024,3.507,18.021,5.848,26.879a153.842,153.842,0,0,0,6.533,18.682c3.985,9.759,13.607,9.483,21.553,10.22,11.753,1.09,23.69.423,35.537.1a8.738,8.738,0,0,0,5.871-3.385c4.69-6.48,3.017-13.109-3.871-18.262-5.562-4.161-12.171-4.648-18.606-5.964-1.721-.352-3.995-1.528-4.624-2.945-1.21-2.723-1.583-5.866-2.026-8.874-1.118-7.6-1.384-15.4-3.262-22.8-3.333-13.134-1.136-24.6,7.8-34.781.908-1.035,1.584-2.275,2.495-3.306,7.824-8.862,14.936-18.529,23.7-26.336,11.562-10.3,24.409-19.047,34.658-30.956,10.138-11.782,21.389-22.6,31.689-34.249,3.89-4.4,6.606-9.87,9.636-14.984s5.758-10.431,8.692-15.616c1.2-2.124,3.016-3.162,4.595-.592,8.743,14.239,19.883,26.936,26.537,42.539,6.485,15.209,15.152,29.649,15.1,46.934-.031,9.683.379,19.4-.305,29.04-.576,8.1.082,14.988,6.65,20.934,11.991,10.858,22.848,23.035,35.279,33.331,18.633,15.432,37.179,31.116,60.849,39.148,11.582,3.93,22.547,6.532,34.426,2.052,5.793-2.185,10.931-11.045,7.848-15.554-5.372-7.85-12.668-13.18-22.393-14.793-4.035-.669-8.38-1.259-11.839-3.208A99.137,99.137,0,0,1,506.316,434.5c-8.391-7.465-16.877-15.051-23.964-23.7-9.573-11.682-9.3-26.687-9.026-40.609.284-14.655,3.7-29.229,5.367-43.881,1.356-11.89,2.074-23.85,3.238-35.763.7-7.192,1.692-14.357,2.605-21.528.455-3.575,2.765-5.428,6.116-4.64,4.876,1.147,9.6,2.949,14.375,4.511,7.557,2.471,15.02,5.277,22.679,7.372,6.468,1.77,13.187,2.6,19.742,4.084,10.157,2.294,20.246,4.894,30.409,7.163,9.717,2.169,19.529,3.913,29.23,6.145,12.426,2.86,24.806,5.906,37.679,5.646,3.862-.079,5.166,1.831,5.094,5.431-.118,5.861.278,11.75-.151,17.582-.455,6.18,1.417,11.314,4.6,16.5,1.817,2.956,2.545,6.8,2.967,10.341.563,4.724-.355,9.69.617,14.286,2.218,10.486,5.169,20.819,7.881,31.2,2.646,10.129.442,15.259-7.578,22.268-10.591,9.255-22.331,17.725-27.169,31.928-2.711,7.961-6.994,15.572-2.966,24.583,3.682,8.236,18.828,12.14,24.966,5.421,3.279-3.589,5.181-8.51,7.388-12.987,2.847-5.773,4.747-12.232,10.73-15.722,9.516-5.55,17.705-12.518,25.525-20.33,12.719-12.705,18.224-28.026,19.754-45.361A27.074,27.074,0,0,1,718,376.42c2.841-6.777,3.633-13.373,1.4-20.621-1.694-5.511-2.156-11.425-2.858-17.2-.148-1.22,1.042-2.6,1.616-3.911,1.221,1.016,2.932,1.8,3.563,3.1A52.438,52.438,0,0,1,725,346.84c2.817,10.335,5.982,20.613,8.067,31.1,2.089,10.515,2.787,21.317,8.562,30.786a51.958,51.958,0,0,1,3.484,6.509c5.389,12.572,10.631,25.206,16.081,37.75a17.444,17.444,0,0,0,3.649,4.69c4.323,4.52,8.848,8.85,13.094,13.44,4.7,5.081,9.458,10.149,13.686,15.614,6.518,8.426,15.979,6.406,24.525,7.355,5.566.617,11.247.19,16.877.25,1.067.011,2.141.22,3.2.153,6.136-.4,12.273-.791,18.4-1.3,3.513-.293,7.04-.628,10.5-1.261s6.945-4.806,6.111-7.558c-4.487-14.8-12.55-25.117-30.693-21.913a15.041,15.041,0,0,1-13.209-3.664c-7.706-6.6-12.177-15.214-14.618-24.643-4.454-17.213-8.285-34.594-12.029-51.98-3.941-18.306-4.8-36.947-4.667-55.6.135-18.53,6.31-34.562,20.476-47.214,7.348-6.563,13.958-13.948,21.253-20.573,6.848-6.218,10.594-14.288,12.244-22.77,1.624-8.349,3.542-15.368,12.416-18.308a4.933,4.933,0,0,0,1.113-.818c8.362-6,16.63-12.144,25.126-17.953,5.006-3.423,10.506-5.577,16.869-5.382a123.972,123.972,0,0,0,18.017-.6c16.8-1.946,33.539-1.179,50.166,1.181,11.937,1.7,23.626,1.732,35.029-2.189,6.589-2.267,13.594-4.251,17.039-11.535,2.013-4.258,4.568-8.261,6.855-12.391,2.724-4.919,1.405-11.5-2.459-15.541-9.755-10.206-11.86-22.9-10.542-36.271.506-5.145.726-9.783-2.83-13.9-1.411-1.632-2.817-3.269-4.194-4.93-4.974-6-9.532-12.412-15.006-17.914-6.465-6.5-13.608-12.343-20.674-18.21-3.148-2.612-4.233-4.629-1.361-8.356a88.761,88.761,0,0,0,7.777-12.986c.664-1.26.218-3.1.28-4.682-1.712-.023-3.651-.577-5.09.038-3.378,1.445-6.492,3.5-9.761,5.214-3.553,1.865-5.261.958-5.346-2.989-.138-6.479.143-12.974-.194-19.44A59.97,59.97,0,0,0,961.266,5.88,7.733,7.733,0,0,0,951.115.461a26.058,26.058,0,0,0-8.8,5.292c-12.782,11.74-20.9,28.386-37.767,35.851-.412.181-.714.6-1.11.828-11.259,6.554-22.059,14.085-34.982,17.2-5.053,1.218-10.2,2.117-15.338,2.893-7.563,1.141-15.158,2.813-22.747,2.851a238.629,238.629,0,0,1-30.232-2.089c-10.481-1.289-20.448.174-30.4,3.232-15.066,4.629-30.081,9.5-45.343,13.383-9.924,2.526-20.253,4.9-30.393,4.865-25.994-.081-52.073,2.329-78-1.463-8.043-1.177-16.157-2.076-24.079-3.822-15.988-3.526-31.829-7.712-47.808-11.28-6.408-1.431-13.033-1.864-19.534-2.908-8.165-1.31-16.261-3.569-24.463-4.023-19.374-1.075-38.794-1.378-58.2-1.868a98.471,98.471,0,0,0-15.244.418c-12.595,1.655-25.178,3.5-37.676,5.763a218.864,218.864,0,0,0-27.776,6.425c-15.045,4.82-29.729,10.564-43.55,18.53a153.943,153.943,0,0,0-39.358,31.691c-6.192,7.042-12.371,14.1-18.737,20.986-20.42,22.077-41.245,43.766-64.972,62.375-8.077,6.335-16.305,12.714-26.566,15.4-11.392,2.984-22.987,5.339-34.156,9-15.4,5.048-31.278,6.345-47.172,6.871-16.8.555-33.373-1.864-49.115-8.338-7.1-2.918-14.1-6.067-21.3-8.7-4.732-1.728-11.9,2.248-15.272,8.063-2.765,4.773.6,7.919,3.544,10.752,7.089,6.824,14.228,13.073,21.643,19.538,2.923,2.291,22.344,13.749,45.185,16.345a125.809,125.809,0,0,0,51.234-1.227c11.939-2.588,23.728-5.867,35.58-8.855,18.623-4.7,36.9-10.569,54.128-19.03,11.271-5.534,21.811-12.552,32.735-18.808,1.07-.612,2.535-.535,3.816-.779.152,1.428.79,3.014.382,4.258-4.267,13.059-7.854,26.235-6.8,40.155.391,5.193-1.463,9.421-3.758,13.916-4.38,8.579-8.25,17.438-11.926,26.349-1.97,4.776-2.2,10.439-4.8,14.752a160.828,160.828,0,0,1-15.948,21.93c-5.493,6.379-8.211,13.161-7.163,21.478a22.372,22.372,0,0,1,.016,2.775" transform="translate(0 0)" fill="#eb6408"/>
  </g>
</svg>
